#N canvas 831 115 602 449 10;
#X obj 193 202 max~;
#X obj 192 156 min~;
#X msg 239 175 -1;
#X obj 192 103 *~;
#X obj 193 22 inlet~;
#X obj 119 22 inlet~;
#X obj 120 202 max~;
#X obj 120 157 min~;
#X obj 120 100 *~;
#X obj 193 252 outlet~;
#X obj 121 252 outlet~;
#X obj 273 32 osc~ 3;
#X obj 273 53 +~ 4;
#X msg 253 121 1;
#X connect 0 0 9 0;
#X connect 1 0 0 0;
#X connect 2 0 0 1;
#X connect 2 0 6 1;
#X connect 3 0 1 0;
#X connect 4 0 3 0;
#X connect 5 0 8 0;
#X connect 6 0 10 0;
#X connect 7 0 6 0;
#X connect 8 0 7 0;
#X connect 11 0 12 0;
#X connect 12 0 3 1;
#X connect 12 0 8 1;
#X connect 13 0 1 1;
#X connect 13 0 7 1;
