#N canvas 142 23 450 300 10;
#X obj 216 101 t b f;
#X obj 269 100 t b f;
#X obj 216 122 f;
#X obj 271 128 f;
#X obj 241 179 &&;
#X obj 207 75 inlet;
#X obj 267 69 inlet;
#X obj 241 200 outlet;
#X connect 0 0 2 0;
#X connect 0 1 3 0;
#X connect 1 0 2 1;
#X connect 1 1 3 1;
#X connect 2 0 4 0;
#X connect 3 0 4 1;
#X connect 4 0 7 0;
#X connect 5 0 0 0;
#X connect 6 0 1 0;
