#N canvas 141 136 450 300 10;
#X obj 159 148 line;
#X floatatom 158 175 5 0 0 0 - - -, f 5;
#X obj 157 225 bng 15 250 50 0 empty empty empty 17 7 0 10 -262144
-1 -1;
#X msg 207 112 100;
#X obj 158 200 moses 1;
#X obj 227 144 spigot;
#X obj 254 113 == 0;
#X obj 224 196 bng 15 250 50 0 empty empty empty 17 7 0 10 -262144
-1 -1;
#X obj 217 65 t b b b;
#X obj 193 250 tgl 15 0 empty empty empty 17 7 0 10 -262144 -1 -1 0
1;
#X msg 152 112 0 500;
#X obj 200 39 inlet;
#X obj 193 270 outlet;
#X connect 0 0 1 0;
#X connect 1 0 4 0;
#X connect 1 0 6 0;
#X connect 2 0 9 0;
#X connect 3 0 0 0;
#X connect 4 0 2 0;
#X connect 5 0 7 0;
#X connect 6 0 5 1;
#X connect 7 0 9 0;
#X connect 8 0 10 0;
#X connect 8 1 3 0;
#X connect 8 2 5 0;
#X connect 9 0 12 0;
#X connect 10 0 0 0;
#X connect 11 0 8 0;
