#N canvas 412 224 576 429 10;
#X obj 141 162 tgl 15 0 empty empty empty 17 7 0 10 -262144 -1 -1 0
1;
#X obj 168 157 tgl 15 0 empty empty empty 17 7 0 10 -262144 -1 -1 0
1;
#X obj 223 156 tgl 15 0 empty empty empty 17 7 0 10 -262144 -1 -1 0
1;
#X obj 194 159 tgl 15 0 empty empty empty 17 7 0 10 -262144 -1 -1 0
1;
#X obj 270 156 tgl 15 0 empty empty empty 17 7 0 10 -262144 -1 -1 0
1;
#X obj 325 155 tgl 15 0 empty empty empty 17 7 0 10 -262144 -1 -1 0
1;
#X obj 296 158 tgl 15 0 empty empty empty 17 7 0 10 -262144 -1 -1 0
1;
#X obj 133 57 key;
#X obj 387 152 tgl 15 0 empty empty empty 17 7 0 10 -262144 -1 -1 0
1;
#X obj 358 155 tgl 15 0 empty empty empty 17 7 0 10 -262144 -1 -1 0
1;
#X obj 444 147 tgl 15 0 empty empty empty 17 7 0 10 -262144 -1 -1 0
1;
#X text 165 93 Gauche Droite Haut Bas ABYX LT RT LB RB;
#X obj 133 119 route 113 100 122 115 97 98 121 120 108 114 111 112
;
#X obj 285 261 switch;
#X connect 7 0 12 0;
#X connect 12 0 0 0;
#X connect 12 1 1 0;
#X connect 12 2 3 0;
#X connect 12 3 2 0;
#X connect 12 5 4 0;
#X connect 12 6 6 0;
#X connect 12 7 5 0;
#X connect 12 8 9 0;
#X connect 12 9 8 0;
#X connect 12 11 10 0;
