#N canvas 524 107 610 508 10;
#X obj 150 185 vcf~;
#X obj 160 84 osc~;
#X obj 160 106 *~;
#X obj 160 127 +~;
#X obj 232 -2 inlet;
#X obj 141 -1 inlet~;
#X obj 62 -1 inlet~;
#X obj 84 185 vcf~;
#X obj 94 83 osc~;
#X obj 94 104 *~;
#X obj 94 125 +~;
#X obj 149 256 outlet~;
#X obj 84 255 outlet~;
#X text 50 -16 ENTREE L;
#X text 129 -17 ENTREE R;
#X text 208 -18 INPUT MANETTE;
#X obj 251 141 random 4;
#X obj 251 162 + 1;
#X obj 251 25 random 20;
#X obj 251 46 + 2;
#X obj 315 25 random 500;
#X obj 315 46 + 200;
#X obj 252 102 +;
#X obj 292 83 random 100;
#X text 185 186 filtre passe-bande;
#X text 77 276 SORTIE L;
#X text 142 276 SORTIE R;
#X text 31 105 Intensité;
#X text 31 124 Fréquence;
#X text 184 152 Résonance;
#X connect 0 0 11 0;
#X connect 1 0 2 0;
#X connect 2 0 3 0;
#X connect 3 0 0 1;
#X connect 4 0 18 0;
#X connect 4 0 20 0;
#X connect 4 0 23 0;
#X connect 4 0 16 0;
#X connect 5 0 0 0;
#X connect 6 0 7 0;
#X connect 7 0 12 0;
#X connect 8 0 9 0;
#X connect 9 0 10 0;
#X connect 10 0 7 1;
#X connect 16 0 17 0;
#X connect 17 0 0 2;
#X connect 17 0 7 2;
#X connect 18 0 19 0;
#X connect 19 0 8 0;
#X connect 19 0 1 0;
#X connect 20 0 21 0;
#X connect 21 0 2 1;
#X connect 21 0 9 1;
#X connect 21 0 22 0;
#X connect 22 0 10 1;
#X connect 22 0 3 1;
#X connect 23 0 22 1;
