#N canvas 147 47 1034 649 10;
#X obj 321 498 dac~;
#X obj 392 453 *~;
#X obj 260 452 *~;
#X obj 492 503 line~;
#X msg 493 477 \$1 50;
#X obj 529 435 hsl 100 8 0 1 0 0 empty empty empty -2 -8 0 10 -262144
-1 -1 8000 1;
#X obj 337 117 openpanel;
#X obj 337 85 bng 15 250 50 0 empty empty empty 17 7 0 10 -262144 -1
-1;
#N canvas 0 50 450 250 (subpatch) 0;
#X array bufferR 4e+006 float 2;
#X coords 0 1 4e+006 -1 200 140 1 0 0;
#X restore 801 41 graph;
#X obj 337 198 soundfiler;
#N canvas 0 50 450 250 (subpatch) 0;
#X array bufferL 4e+006 float 2;
#X coords 0 1 4e+006 -1 200 140 1 0 0;
#X restore 585 41 graph;
#X msg 337 162 read -resize \$1 bufferL bufferR;
#X obj 257 389 tabread4~ bufferL;
#X obj 392 386 tabread4~ bufferR;
#X obj 283 272 phasor~;
#X obj 319 306 *~;
#X obj 281 236 /;
#X msg 278 176 44100;
#X obj 201 48 vsl 15 300 -66200 66200 0 0 empty empty empty 0 -9 0
10 -262144 -1 -1 7300 1;
#X obj 450 244 hsl 128 15 -22100 22100 0 0 empty empty empty -2 -8
0 10 -262144 -1 -1 9700 1;
#X obj 373 346 +~;
#X obj 427 312 line~;
#X msg 439 281 \$1 500;
#X connect 1 0 0 1;
#X connect 2 0 0 0;
#X connect 3 0 1 1;
#X connect 3 0 2 1;
#X connect 4 0 3 0;
#X connect 5 0 4 0;
#X connect 6 0 11 0;
#X connect 7 0 6 0;
#X connect 9 0 15 1;
#X connect 9 0 16 1;
#X connect 11 0 9 0;
#X connect 12 0 2 0;
#X connect 13 0 1 0;
#X connect 14 0 15 0;
#X connect 15 0 12 0;
#X connect 15 0 20 0;
#X connect 16 0 14 0;
#X connect 17 0 16 0;
#X connect 18 0 16 0;
#X connect 19 0 22 0;
#X connect 20 0 13 0;
#X connect 21 0 20 1;
#X connect 22 0 21 0;
