#N canvas 230 56 767 480 10;
#X obj 129 79 soundfiler;
#X obj 131 192 phasor~;
#X obj 135 252 *~, f 2;
#X obj 229 224 r LongueurMorceau;
#X obj 198 114 s longueurMorceau;
#X obj 134 284 tabread4~ channelL;
#X obj 527 159 vsl 15 128 0 1 0 0 empty empty empty 0 -9 0 10 -262144
-1 -1 6700 1;
#X obj 140 360 *~;
#X obj 278 352 *~;
#X obj 190 428 dac~;
#X obj 267 281 tabread4~ channelR;
#N canvas 0 50 450 250 (subpatch) 0;
#X array channelL 4e+006 float 2;
#X coords 0 1 4e+006 -1 200 140 1;
#X restore 570 29 graph;
#X msg 126 49 read -resize overworld.wav channelL channelR;
#N canvas 0 50 450 250 (subpatch) 0;
#X array channelR 4e+006 float 2;
#X coords 0 1 4e+006 -1 200 140 1;
#X restore 574 198 graph;
#X obj 29 23 tgl 15 0 empty empty empty 17 7 0 10 -262144 -1 -1 0 1
;
#X msg 29 43 \; pd dsp \$1;
#X obj 131 153 expr 44100/ $f1;
#X connect 0 0 16 0;
#X connect 0 0 4 0;
#X connect 1 0 2 0;
#X connect 2 0 5 0;
#X connect 2 0 10 0;
#X connect 3 0 2 0;
#X connect 5 0 7 0;
#X connect 6 0 8 1;
#X connect 6 0 7 1;
#X connect 7 0 9 0;
#X connect 8 0 9 1;
#X connect 10 0 8 0;
#X connect 12 0 0 0;
#X connect 14 0 15 0;
#X connect 16 0 1 0;
