#N canvas 649 208 450 300 10;
#X obj 141 162 tgl 15 0 empty empty empty 17 7 0 10 -262144 -1 -1 0
1;
#X obj 131 110 route 113 100 122 115 97 98 121 120;
#X obj 168 157 tgl 15 0 empty empty empty 17 7 0 10 -262144 -1 -1 0
1;
#X obj 223 156 tgl 15 0 empty empty empty 17 7 0 10 -262144 -1 -1 0
1;
#X obj 194 159 tgl 15 0 empty empty empty 17 7 0 10 -262144 -1 -1 0
1;
#X obj 243 161 tgl 15 0 empty empty empty 17 7 0 10 -262144 -1 -1 0
1;
#X obj 270 156 tgl 15 0 empty empty empty 17 7 0 10 -262144 -1 -1 0
1;
#X obj 325 155 tgl 15 0 empty empty empty 17 7 0 10 -262144 -1 -1 0
1;
#X obj 296 158 tgl 15 0 empty empty empty 17 7 0 10 -262144 -1 -1 0
1;
#X obj 133 57 key;
#X connect 1 0 0 0;
#X connect 1 1 2 0;
#X connect 1 2 4 0;
#X connect 1 3 3 0;
#X connect 1 4 5 0;
#X connect 1 5 6 0;
#X connect 1 6 8 0;
#X connect 1 7 7 0;
#X connect 9 0 1 0;
