#N canvas 621 167 576 429 10;
#X obj 141 162 tgl 15 0 empty empty empty 17 7 0 10 -262144 -1 -1 0
1;
#X obj 168 157 tgl 15 0 empty empty empty 17 7 0 10 -262144 -1 -1 0
1;
#X obj 223 156 tgl 15 0 empty empty empty 17 7 0 10 -262144 -1 -1 1
1;
#X obj 194 159 tgl 15 0 empty empty empty 17 7 0 10 -262144 -1 -1 0
1;
#X obj 270 156 tgl 15 0 empty empty empty 17 7 0 10 -262144 -1 -1 0
1;
#X obj 325 155 tgl 15 0 empty empty empty 17 7 0 10 -262144 -1 -1 0
1;
#X obj 296 158 tgl 15 0 empty empty empty 17 7 0 10 -262144 -1 -1 1
1;
#X obj 133 57 key;
#X obj 139 113 route 113 100 122 115 97 98 121 120 108 114 111 112
;
#X obj 387 152 tgl 15 0 empty empty empty 17 7 0 10 -262144 -1 -1 1
1;
#X obj 358 155 tgl 15 0 empty empty empty 17 7 0 10 -262144 -1 -1 0
1;
#X obj 444 147 tgl 15 0 empty empty empty 17 7 0 10 -262144 -1 -1 0
1;
#X text 165 93 Gauche Droite Haut Bas ABYX LT RT LB RB;
#X obj 423 196 tgl 15 0 empty empty empty 17 7 0 10 -262144 -1 -1 1
1;
#X msg 392 336 Modification Spin;
#X obj 305 264 switch;
#X obj 119 392 print;
#X obj 392 358 print;
#X obj 243 193 bng 15 250 50 0 empty empty empty 17 7 0 10 -262144
-1 -1;
#X msg 119 370 Modification boule de feu;
#X obj 164 250 keycourse;
#X obj 160 311 tgl 15 0 empty empty empty 17 7 0 10 -262144 -1 -1 0
1;
#X obj 164 271 != 1;
#X connect 7 0 8 0;
#X connect 8 0 0 0;
#X connect 8 1 1 0;
#X connect 8 2 3 0;
#X connect 8 3 2 0;
#X connect 8 4 15 0;
#X connect 8 4 18 0;
#X connect 8 5 4 0;
#X connect 8 6 6 0;
#X connect 8 7 5 0;
#X connect 8 8 10 0;
#X connect 8 9 9 0;
#X connect 8 10 13 0;
#X connect 8 11 11 0;
#X connect 13 0 15 1;
#X connect 14 0 17 0;
#X connect 15 0 19 0;
#X connect 15 1 14 0;
#X connect 18 0 20 0;
#X connect 19 0 16 0;
#X connect 20 0 22 0;
#X connect 22 0 21 0;
