#N canvas 669 175 518 367 10;
#X obj 130 56 bng 15 250 50 0 empty empty empty 17 7 0 10 -262144 -1
-1;
#X obj 203 60 tgl 15 0 empty empty empty 17 7 0 10 -262144 -1 -1 0
1;
#X obj 205 109 spigot;
#X obj 106 140 spigot;
#X obj 146 112 != 1;
#X obj 129 23 inlet;
#X obj 203 27 inlet;
#X obj 104 207 outlet;
#X obj 204 203 outlet;
#X connect 0 0 2 0;
#X connect 0 0 3 0;
#X connect 1 0 2 1;
#X connect 1 0 4 0;
#X connect 2 0 8 0;
#X connect 3 0 7 0;
#X connect 4 0 3 1;
#X connect 5 0 0 0;
#X connect 6 0 1 0;
